<?xml version="1.0" encoding="UTF-8"?>
<!-- Generated by Pixelmator Pro 3.7 -->
<svg width="220" height="100" viewBox="0 0 220 100" xmlns="http://www.w3.org/2000/svg">
    <g id="Group">
        <g id="Layer3"/>
        <path id="Path" fill="#62d4f9" stroke="none" d="M 34.963432 30.702721 L 19 40.148544 L 50.926872 58.851273 L 66.890305 49.499908 Z"/>
        <path id="path1" fill="#e16bfc" stroke="none" d="M 34.963432 12 L 19 21.351364 L 66.890305 49.499908 L 82.759293 40.148544 Z"/>
        <path id="path2" fill="#35a6e7" stroke="none" d="M 66.890305 49.499908 L 50.926872 58.851273 L 50.926872 77.553986 L 66.890305 68.202629 Z"/>
        <path id="path3" fill="#9119f6" stroke="none" d="M 82.759293 40.148544 L 66.890305 49.499908 L 66.890305 68.202629 L 82.759293 58.851273 Z"/>
        <path id="path4" fill="#2a50df" stroke="none" d="M 50.926872 58.851273 L 34.963432 68.297089 L 19 58.851273 L 19 77.648453 L 34.963432 86.999809 L 34.963432 86.999809 L 34.963432 86.999809 L 34.963432 86.999809 L 34.963432 86.999809 L 50.926872 77.553986 Z"/>
        <path id="path5" fill="#017ae3" stroke="none" d="M 19 58.851273 L 34.963432 49.499908 L 50.926872 58.851273 L 34.963432 68.297089 Z"/>
        <path id="path6" fill="#35a6e7" stroke="none" d="M 19 40.148544 L 19 58.851273 L 34.963432 49.499908 Z"/>
        <path id="path7" fill="#9119f6" stroke="none" d="M 19 21.351364 L 19 40.148544 L 34.963432 30.702721 Z"/>
    </g>
    <g id="g1">
        <g id="g2">
            <path id="path8" fill="#ffffff" stroke="none" d="M 120.925003 58.834 L 102.145004 58.834 L 102.145004 27.414001 L 107.865005 27.414001 L 107.865005 54.034004 L 120.925003 54.034004 L 120.925003 58.834 Z M 147.195007 46.863998 L 147.195007 46.863998 C 147.195007 48.830668 146.931671 50.584002 146.404999 52.124001 C 145.878337 53.663999 145.121668 54.967333 144.134995 56.034004 C 143.154994 57.107333 141.954997 57.913999 140.535004 58.454002 C 139.108337 59.000669 137.515004 59.274002 135.755005 59.274002 L 135.755005 59.274002 C 134.115 59.274002 132.605001 59.000669 131.225006 58.454002 C 129.845001 57.913999 128.65833 57.107333 127.664993 56.034004 C 126.664993 54.967333 125.878326 53.663999 125.304993 52.124001 C 124.731659 50.584002 124.444992 48.830668 124.444992 46.863998 L 124.444992 46.863998 C 124.444992 44.190664 124.90833 41.947332 125.835007 40.134003 C 126.761673 38.314 128.075002 36.927333 129.774994 35.973999 C 131.474996 35.020665 133.511663 34.543999 135.884995 34.543999 L 135.884995 34.543999 C 138.118332 34.543999 140.078334 35.020665 141.764999 35.973999 C 143.451665 36.927333 144.77833 38.314 145.744995 40.134003 C 146.71167 41.947332 147.195007 44.190664 147.195007 46.863998 Z M 130.164993 46.863998 L 130.164993 46.863998 C 130.164993 48.503998 130.364995 49.933998 130.764999 51.153999 C 131.15833 52.367332 131.774999 53.297333 132.615005 53.944 C 133.448339 54.590668 134.525004 54.914001 135.845001 54.914001 L 135.845001 54.914001 C 137.164998 54.914001 138.241664 54.590668 139.074997 53.944 C 139.915003 53.297333 140.525004 52.367332 140.904999 51.153999 C 141.285004 49.933998 141.475006 48.503998 141.475006 46.863998 L 141.475006 46.863998 C 141.475006 45.164001 141.278336 43.727336 140.884995 42.554001 C 140.485001 41.380666 139.875005 40.477333 139.055008 39.844002 C 138.235001 39.210665 137.151667 38.893997 135.805008 38.893997 L 135.805008 38.893997 C 133.838333 38.893997 132.40833 39.590665 131.514999 40.984001 C 130.614995 42.377332 130.164993 44.337331 130.164993 46.863998 Z M 160.964996 34.543999 L 160.964996 34.543999 C 162.578339 34.543999 163.965007 34.843999 165.125 35.444 C 166.285004 36.044001 167.261673 36.900668 168.055008 38.014 L 168.055008 38.014 L 168.275009 38.014 L 168.845001 34.984001 L 173.505005 34.984001 L 173.505005 59.094002 C 173.505005 61.354001 173.088338 63.247335 172.255005 64.774002 C 171.421672 66.294001 170.161672 67.444 168.475006 68.223999 C 166.78834 69.003998 164.638336 69.393997 162.024994 69.393997 L 162.024994 69.393997 C 160.238332 69.393997 158.618332 69.274 157.164993 69.034004 C 155.711665 68.800667 154.368332 68.433998 153.134995 67.933998 L 153.134995 67.933998 L 153.134995 63.054001 C 154.394994 63.640666 155.738327 64.093999 157.164993 64.414001 C 158.584997 64.740667 160.191666 64.903999 161.985001 64.903999 L 161.985001 64.903999 C 163.891668 64.903999 165.358337 64.420667 166.38501 63.454002 C 167.411672 62.48067 167.925003 61.130669 167.925003 59.403999 L 167.925003 59.403999 L 167.925003 58.694 C 167.925003 58.314 167.945002 57.824 167.985001 57.223999 C 168.031672 56.623998 168.068339 56.117332 168.095001 55.704002 L 168.095001 55.704002 L 167.925003 55.704002 C 167.191666 56.817334 166.251663 57.690666 165.104996 58.323997 C 163.958338 58.957334 162.565008 59.274002 160.925003 59.274002 L 160.925003 59.274002 C 158.051671 59.274002 155.778336 58.200668 154.104996 56.054001 C 152.431666 53.914001 151.595001 50.880669 151.595001 46.954002 L 151.595001 46.954002 C 151.595001 43.047335 152.438334 40.004 154.125 37.823997 C 155.811666 35.637332 158.091665 34.543999 160.964996 34.543999 Z M 162.505005 39.033997 L 162.505005 39.033997 C 161.391673 39.033997 160.448339 39.340665 159.675003 39.954002 C 158.895004 40.567334 158.308334 41.470668 157.914993 42.664001 C 157.514999 43.850667 157.315002 45.294001 157.315002 46.994003 L 157.315002 46.994003 C 157.315002 49.607335 157.761668 51.564 158.654999 52.863998 C 159.555003 54.170664 160.868337 54.823997 162.595001 54.823997 L 162.595001 54.823997 C 163.595001 54.823997 164.445002 54.683998 165.145004 54.403999 C 165.851669 54.130669 166.431671 53.707336 166.88501 53.134003 C 167.338338 52.560669 167.675003 51.834002 167.895004 50.954002 C 168.115005 50.074003 168.225006 49.034002 168.225006 47.834 L 168.225006 47.834 L 168.225006 46.863998 C 168.225006 45.070669 168.028341 43.597336 167.63501 42.444 C 167.241669 41.284002 166.625 40.424001 165.785004 39.863998 C 164.95167 39.310664 163.858337 39.033997 162.505005 39.033997 Z M 180.375 34.984001 L 185.964996 34.984001 L 185.964996 58.834 L 180.375 58.834 L 180.375 34.984001 Z M 183.235001 25.744003 L 183.235001 25.744003 C 184.054998 25.744003 184.771667 25.964005 185.38501 26.404007 C 186.005005 26.843999 186.315002 27.60733 186.315002 28.694 L 186.315002 28.694 C 186.315002 29.747335 186.005005 30.500669 185.38501 30.954002 C 184.771667 31.407336 184.054998 31.634003 183.235001 31.634003 L 183.235001 31.634003 C 182.355006 31.634003 181.615005 31.407336 181.014999 30.954002 C 180.40833 30.500669 180.104996 29.747335 180.104996 28.694 L 180.104996 28.694 C 180.104996 27.60733 180.40833 26.843999 181.014999 26.404007 C 181.615005 25.964005 182.355006 25.744003 183.235001 25.744003 Z M 209.195007 51.963997 L 209.195007 51.963997 C 209.195007 53.490664 208.828339 54.797333 208.095001 55.884003 C 207.361664 56.970668 206.274999 57.807332 204.835007 58.393997 C 203.401667 58.980667 201.611664 59.274002 199.464996 59.274002 L 199.464996 59.274002 C 197.79833 59.274002 196.331665 59.154002 195.065002 58.914001 C 193.805003 58.680669 192.631668 58.314003 191.544998 57.814003 L 191.544998 57.814003 L 191.544998 53.064003 C 192.718338 53.624001 194.018341 54.087334 195.445007 54.454002 C 196.865 54.820666 198.178335 55.003998 199.38501 55.003998 L 199.38501 55.003998 C 200.965007 55.003998 202.108337 54.767331 202.815002 54.293999 C 203.515004 53.827334 203.865005 53.197334 203.865005 52.403999 L 203.865005 52.403999 C 203.865005 51.903999 203.71167 51.457334 203.404999 51.064003 C 203.098338 50.670667 202.541672 50.267334 201.735001 49.854004 C 200.92834 49.440669 199.791672 48.940669 198.324997 48.354004 L 198.324997 48.354004 C 196.858332 47.767334 195.618332 47.173999 194.604996 46.573997 C 193.59167 45.974002 192.821671 45.240669 192.294998 44.374001 C 191.768336 43.507332 191.505005 42.430664 191.505005 41.143997 L 191.505005 41.143997 C 191.505005 39.003998 192.355006 37.367332 194.055008 36.234001 C 195.755 35.107333 197.998332 34.543999 200.785004 34.543999 L 200.785004 34.543999 C 202.285004 34.543999 203.688334 34.690666 204.994995 34.984001 C 206.295003 35.277331 207.578339 35.717331 208.845001 36.304001 L 208.845001 36.304001 L 207.165009 40.264 C 206.085002 39.790667 204.971664 39.400668 203.824997 39.094002 C 202.678329 38.787336 201.621663 38.634003 200.654999 38.634003 L 200.654999 38.634003 C 199.421672 38.634003 198.475006 38.824003 197.815002 39.204002 C 197.154999 39.584002 196.824997 40.114001 196.824997 40.793999 L 196.824997 40.793999 C 196.824997 41.320666 196.988332 41.767334 197.315002 42.134003 C 197.635 42.500666 198.205002 42.873998 199.025009 43.253998 C 199.851669 43.633998 200.998332 44.103999 202.464996 44.664001 L 202.464996 44.664001 C 203.898336 45.217336 205.121674 45.804003 206.13501 46.424004 C 207.148336 47.037336 207.911667 47.777334 208.425003 48.643997 C 208.938339 49.510666 209.195007 50.617332 209.195007 51.963997 Z"/>
        </g>
    </g>
</svg>
