<?xml version="1.0" encoding="UTF-8"?>
<!-- Generated by Pixelmator Pro 3.7 -->
<svg width="215" height="215" viewBox="0 0 215 215" xmlns="http://www.w3.org/2000/svg">
    <g id="Group">
        <g id="Layer3"/>
        <path id="Path" fill="#62d4f9" stroke="none" d="M 63.051456 53.614609 L 17.289501 80.692703 L 108.813431 134.307312 L 154.575394 107.500008 Z"/>
        <path id="path1" fill="#e16bfc" stroke="none" d="M 63.051456 0 L 17.289501 26.807312 L 154.575394 107.500008 L 200.066605 80.692703 Z"/>
        <path id="path2" fill="#35a6e7" stroke="none" d="M 154.575394 107.500008 L 108.813431 134.307312 L 108.813431 187.921906 L 154.575394 161.114609 Z"/>
        <path id="path3" fill="#9119f6" stroke="none" d="M 200.066605 80.692703 L 154.575394 107.500008 L 154.575394 161.114609 L 200.066605 134.307312 Z"/>
        <path id="path4" fill="#2a50df" stroke="none" d="M 108.813431 134.307312 L 63.051456 161.385406 L 17.289501 134.307312 L 17.289501 188.192703 L 63.051456 215 L 63.051456 215 L 63.051456 215 L 63.051456 215 L 63.051456 215 L 108.813431 187.921906 Z"/>
        <path id="path5" fill="#017ae3" stroke="none" d="M 17.289501 134.307312 L 63.051456 107.500008 L 108.813431 134.307312 L 63.051456 161.385406 Z"/>
        <path id="path6" fill="#35a6e7" stroke="none" d="M 17.289501 80.692703 L 17.289501 134.307312 L 63.051456 107.500008 Z"/>
        <path id="path7" fill="#9119f6" stroke="none" d="M 17.289501 26.807312 L 17.289501 80.692703 L 63.051456 53.614609 Z"/>
    </g>
</svg>
